<svg xmlns="http://www.w3.org/2000/svg" viewBox="0 0 519.16 127.21"><defs><style>.cls-1{fill:#6f6f6f;}.cls-2{fill:#00395b;}</style></defs><title>Asset 1</title><g id="Layer_2" data-name="Layer 2"><g id="Ebene_1" data-name="Ebene 1"><path class="cls-1" d="M141.44,64.7V30.62H158v4.21H147.73v10.3h9.17v4.16h-9.17v11.2H158V64.7Z"/><path class="cls-1" d="M172.79,65.24c-7,0-10.65-2.77-10.65-9.06V38h6V56.37c0,3.13,1.54,4.81,4.71,4.81a9.44,9.44,0,0,0,3.91-.74V38h6V63.21A24.73,24.73,0,0,1,172.79,65.24Z"/><path class="cls-1" d="M200.44,42a7,7,0,0,0-2.73-.54,6.83,6.83,0,0,0-2.87.54V64.7h-6V39.39a23.24,23.24,0,0,1,10-1.89c1.09,0,2.38.1,2.87.15Z"/><path class="cls-1" d="M214.43,65.24c-7.58,0-11.29-5.84-11.29-13.92s3.71-13.87,11.29-13.87,11.29,5.85,11.29,13.87S222,65.24,214.43,65.24Zm0-24c-3.91,0-5.25,4.41-5.25,10s1.34,10,5.25,10,5.25-4.41,5.25-10S218.34,41.22,214.43,41.22Z"/><path class="cls-1" d="M240.63,65.09a14,14,0,0,1-4-.59V75.35h-6v-36a21.08,21.08,0,0,1,9.21-1.94c8,0,12.53,5.06,12.53,13.58C252.37,59.79,247.62,65.09,240.63,65.09Zm-.89-24a7.89,7.89,0,0,0-3.12.54V60.93a7.81,7.81,0,0,0,2.68.45c4.75,0,7.08-3.67,7.08-10.21C246.38,44.88,244.59,41.12,239.74,41.12Z"/><path class="cls-1" d="M266.81,65.24c-7,0-10.9-2.82-10.9-8.27,0-6.54,6.49-8.87,14.91-9.66V45.87c0-3.12-1.73-4.5-5.1-4.5a16.62,16.62,0,0,0-6.93,1.68l-1.34-3.56a22.71,22.71,0,0,1,9-2c6.14,0,10,2.78,10,9.22V63.31A22,22,0,0,1,266.81,65.24Zm4-15c-5.94.65-9.21,2.43-9.21,6.54,0,3.27,1.93,5,5.6,5a8.28,8.28,0,0,0,3.61-.74Z"/><path class="cls-1" d="M281.88,50.63V46.07H294v4.56Z"/><path class="cls-1" d="M311.27,65.24c-6.78,0-11.34-4.31-11.34-10.45V30.62h6.29V54.84a5.28,5.28,0,1,0,10.55,0V30.62h5.85V54.79C322.62,60.93,318.06,65.24,311.27,65.24Z"/><path class="cls-1" d="M343.94,64.7V46.42c0-3.47-1.39-5.15-5.11-5.15a9.78,9.78,0,0,0-3.91.69V64.7h-6V39.44a25.6,25.6,0,0,1,9.95-1.94c7.78,0,11.15,3.27,11.15,9V64.7Z"/><path class="cls-1" d="M358.92,33.44a3.21,3.21,0,0,1-3.37-3,3.38,3.38,0,0,1,6.73,0A3.21,3.21,0,0,1,358.92,33.44Zm-3,31.26V38h6V64.7Z"/><path class="cls-1" d="M380.24,64.7h-5.65L365.78,38h6.49l4.65,17.33a22.3,22.3,0,0,1,.65,3.82h.09a20,20,0,0,1,.7-3.82L383.31,38h5.75Z"/><path class="cls-1" d="M396.68,53.55c.45,4.66,3.07,7.43,7.48,7.43a15.07,15.07,0,0,0,6.59-1.53l1.43,3.86a20.19,20.19,0,0,1-8.86,1.93c-8.08,0-12.53-5.6-12.53-14s4.26-13.82,11.49-13.82c6.93,0,10.85,4.56,10.85,12.88v.79Zm5.4-12.48c-3.81,0-5.75,3.62-5.75,8.87v.54l11-1.73C407.28,43.89,405.7,41.07,402.08,41.07Z"/><path class="cls-1" d="M429.5,42a7.52,7.52,0,0,0-5.6,0V64.7h-6V39.39a23.32,23.32,0,0,1,10-1.89c1.09,0,2.37.1,2.87.15Z"/><path class="cls-1" d="M440.19,65.24a15.87,15.87,0,0,1-7.72-1.93l1.68-3.77a10.4,10.4,0,0,0,5.35,1.54c2.68,0,4.36-1.63,4.36-3.76,0-5.55-10.75-3.47-10.75-12.09,0-4.56,3.77-7.78,8.77-7.78a13.47,13.47,0,0,1,7.43,1.94l-1.54,3.41A9.39,9.39,0,0,0,443,41.32c-2.63,0-4,1.53-4,3.51,0,5.25,11,3.32,11,12.09C450.05,61.53,446.19,65.24,440.19,65.24Z"/><path class="cls-1" d="M457.59,33.44a3.21,3.21,0,0,1-3.37-3,3.38,3.38,0,0,1,6.73,0A3.21,3.21,0,0,1,457.59,33.44Zm-3,31.26V38h6.05V64.7Z"/><path class="cls-1" d="M474.88,65c-4.46,0-7.13-2.67-7.13-7.38V41.81h-3V38h3V32.11l6-1.69V38h4.36v3.81h-4.36V57.66c0,2,1,3.22,2.87,3.22a4.65,4.65,0,0,0,1.49-.25v3.82A7.68,7.68,0,0,1,474.88,65Z"/><path class="cls-1" d="M492.37,65.24c-7,0-10.89-2.82-10.89-8.27,0-6.54,6.48-8.87,14.9-9.66V45.87c0-3.12-1.73-4.5-5.1-4.5a16.65,16.65,0,0,0-6.93,1.68L483,39.49a22.76,22.76,0,0,1,9-2c6.14,0,10,2.78,10,9.22V63.31A22,22,0,0,1,492.37,65.24Zm-3.91-30.51a2.68,2.68,0,1,1,2.67-2.67A2.67,2.67,0,0,1,488.46,34.73Zm7.92,15.5c-5.94.65-9.21,2.43-9.21,6.54,0,3.27,1.93,5,5.6,5a8.25,8.25,0,0,0,3.61-.74Zm.6-15.5a2.68,2.68,0,1,1,2.67-2.67A2.67,2.67,0,0,1,497,34.73Z"/><path class="cls-1" d="M515.89,65c-4.45,0-7.13-2.67-7.13-7.38V41.81h-3V38h3V32.11l6-1.69V38h4.35v3.81h-4.35V57.66c0,2,1,3.22,2.87,3.22a4.59,4.59,0,0,0,1.48-.25v3.82A7.65,7.65,0,0,1,515.89,65Z"/><path class="cls-1" d="M147.73,86.2V96.5h9.12v4.16h-9.12v15.4h-6.29V82H158V86.2Z"/><path class="cls-1" d="M162.33,116.06V77.18h6v38.88Z"/><path class="cls-1" d="M179.2,104.92c.45,4.66,3.07,7.43,7.48,7.43a14.93,14.93,0,0,0,6.59-1.54l1.43,3.87a20.16,20.16,0,0,1-8.86,1.93c-8.07,0-12.53-5.6-12.53-14s4.26-13.82,11.49-13.82c6.93,0,10.85,4.56,10.85,12.88v.79Zm5.4-12.48c-3.81,0-5.75,3.61-5.75,8.86v.55l11-1.73C189.8,95.26,188.22,92.44,184.6,92.44Z"/><path class="cls-1" d="M215.44,116.06V97.79c0-3.47-1.39-5.15-5.1-5.15a9.8,9.8,0,0,0-3.92.69v22.73h-6V90.8a25.84,25.84,0,0,1,10-1.93c7.77,0,11.14,3.27,11.14,9v18.22Z"/><path class="cls-1" d="M233.31,116.61a15.94,15.94,0,0,1-7.73-1.93l1.69-3.77a10.35,10.35,0,0,0,5.35,1.54c2.67,0,4.36-1.64,4.36-3.77,0-5.54-10.75-3.46-10.75-12.08,0-4.56,3.76-7.78,8.77-7.78a13.49,13.49,0,0,1,7.43,1.94l-1.54,3.41a9.43,9.43,0,0,0-4.76-1.48c-2.62,0-4,1.53-4,3.51,0,5.25,11,3.32,11,12.09C243.17,112.89,239.3,116.61,233.31,116.61Z"/><path class="cls-1" d="M256.38,116.61a18.52,18.52,0,0,1-8.76-1.93V77.18h6V90a11.87,11.87,0,0,1,5.05-1c6.49,0,10.7,5,10.7,13C269.36,111,264.76,116.61,256.38,116.61Zm.75-24.07a8.06,8.06,0,0,0-3.52.74v19.07a8.25,8.25,0,0,0,3.07.49c4.71,0,6.69-4.11,6.69-10.35S261.19,92.54,257.13,92.54Z"/><path class="cls-1" d="M284.75,116.61c-7,0-10.65-2.77-10.65-9.06V89.37h6v18.37c0,3.12,1.54,4.81,4.71,4.81a9.28,9.28,0,0,0,3.91-.75V89.37h6v25.21A24.73,24.73,0,0,1,284.75,116.61Z"/><path class="cls-1" d="M312.4,93.33a7,7,0,0,0-2.73-.54,6.83,6.83,0,0,0-2.87.54v22.73h-6V90.76a23.24,23.24,0,0,1,10-1.89c1.09,0,2.38.1,2.87.15Z"/><path class="cls-1" d="M325.56,127.21a20.33,20.33,0,0,1-9.06-1.93l1.58-4a14.1,14.1,0,0,0,6.44,1.54c4.46,0,6.14-2.53,6.14-6.14v-1.49a10.33,10.33,0,0,1-5,1c-6.54,0-10.75-5-10.75-13.07,0-8.82,4.61-14.32,13.08-14.32a19.32,19.32,0,0,1,8.67,1.94v25.35C336.66,123.3,332.45,127.21,325.56,127.21ZM330.66,93a7.39,7.39,0,0,0-3.12-.59c-4.6,0-6.63,4-6.63,10.45,0,6.34,1.93,9.76,6.34,9.76a7,7,0,0,0,3.41-.84Z"/><path class="cls-2" d="M31.68,117.93c4.33-2.37,20.54-17.24,35.25-34.58a92.73,92.73,0,0,0,9.44-13.19c-.34,0-10,9.88-21.36,9.25-3.91-.21-7.19-3.15-7-6.7-2,1.74-6.48,6.79-12.7,7-1.58,0-5.07-.26-7-3.1a7.28,7.28,0,0,1-1.12-3.26C20.8,78,13.88,81,5.89,79.53A8.43,8.43,0,0,1,0,75.74v42.19Z"/><path class="cls-2" d="M91.77,51.93c5.73-2.58,18.68-10.73,26.16-18.8V16.66q-4,4.41-7.51,9.1C106,31.8,99.43,40.66,91.77,51.93Z"/><path class="cls-2" d="M88.58,59.52,88,60l-3.41,5.76,12.71-.2c2,0,3.27.37,3.27,2.32,0,.82-.1,1.68-2.87,1.83l-14.83.33c-21.23,30.42-42,46.18-44.13,47.86h79.23V39.21c-2.12,1.81-4.28,3.58-6.47,5.28A140.92,140.92,0,0,1,88.58,59.52Z"/><path class="cls-2" d="M0,0V63.08a34.23,34.23,0,0,1,3.64-4.85c3.62-4.1,7.15-6,10.44-6a4.13,4.13,0,0,1,3.27,1.29,5,5,0,0,1,1.26,3.64,7.62,7.62,0,0,1-2.15,4.61,28.79,28.79,0,0,1-4.84,4,61,61,0,0,1-7.31,4.5c-.09.86.8,2.06,1.8,2.84a7.57,7.57,0,0,0,4.05.84c3.87,0,9.38-2,16.85-6.83.62-.41,1.95-1.88,3.41-3.26,2.31-2.18,4.76-5.56,8.85-9.55a16.05,16.05,0,0,1,1.78-1.63,1.83,1.83,0,0,1,1.47-.29,1.77,1.77,0,0,1,1.29.84c.74.87-.32,2.34-.32,2.34C43,56.22,37.12,63.12,36,65c-1.6,2.84-1.9,3.57-1.9,5.11,0,1.87,1,2.71,2.22,2.81,1.41.12,2.07-.12,3.92-1.22a38.54,38.54,0,0,0,5.24-3.92,102.08,102.08,0,0,0,7.75-7.4c4.38-4.47,5.27-5.46,6.16-6.06s3.3.43,2.9,2c-.19.72-1.06,1.51-4.73,5.6-2.29,2.56-3.41,4.15-4,6.47-.68,2.77,0,5.41,3.5,5.54,2.16.09,5.28-.24,12.2-4.57a118.46,118.46,0,0,0,11.25-8C84,56,89.69,47.44,96,38.17c8.14-11.39,15.41-20.75,21.89-27.54V0Z"/><path class="cls-2" d="M12.85,57.14A9,9,0,0,0,7.35,60c-1.32,1.39-3,3.79-3.19,5C5.72,64.55,13.42,60.92,12.85,57.14Z"/></g></g></svg>